<svg width="24" height="24" viewBox="0 0 24 24" fill="none" xmlns="http://www.w3.org/2000/svg">
<path fill-rule="evenodd" clip-rule="evenodd" d="M9.97837 5.52352C8.03745 6.28405 6.40095 8.199 6.16832 11.2432L8.42345 8.9871C8.79077 8.61962 9.38632 8.61962 9.75364 8.9871C10.121 9.35457 10.121 9.95037 9.75364 10.3178L5.99129 14.0818C5.8076 14.2655 5.56684 14.3574 5.32608 14.3574C5.08533 14.3574 4.84457 14.2655 4.66088 14.0818L0.898538 10.3178C0.531217 9.95037 0.531217 9.35457 0.898538 8.9871C1.26586 8.61962 1.86141 8.61962 2.22873 8.9871L4.39807 11.1573C4.66506 7.4784 6.68127 4.91956 9.32939 3.88192C12.1558 2.77441 15.5583 3.46349 17.9671 6.12817C18.2945 6.49028 18.265 7.04801 17.9013 7.3739C17.5376 7.6998 16.9773 7.67044 16.65 7.30833C14.7192 5.17252 12.0943 4.69439 9.97837 5.52352ZM14.0241 18.2579C15.965 17.4974 17.6015 15.5825 17.8341 12.5383L15.579 14.7944C15.2117 15.1618 14.6161 15.1618 14.2488 14.7944C13.8815 14.4269 13.8815 13.8311 14.2488 13.4636L18.0111 9.69971C18.1948 9.51595 18.4356 9.42408 18.6764 9.42411C18.9171 9.42408 19.1579 9.51595 19.3416 9.69971L23.1039 13.4636C23.4712 13.8311 23.4712 14.4269 23.1039 14.7944C22.7366 15.1618 22.141 15.1618 21.7737 14.7944L19.6044 12.6241C19.3374 16.3031 17.3212 18.8619 14.6731 19.8995C11.8466 21.0071 8.44418 20.318 6.0353 17.6533C5.70796 17.2912 5.73745 16.7335 6.10117 16.4076C6.46489 16.0817 7.0251 16.111 7.35244 16.4731C9.28321 18.6089 11.9081 19.0871 14.0241 18.2579Z" fill="#7825FF"/>
</svg>
