<?xml version="1.0" encoding="UTF-8" standalone="no"?>
<svg width="24px" height="24px" viewBox="0 0 24 24" version="1.1" xmlns="http://www.w3.org/2000/svg" xmlns:xlink="http://www.w3.org/1999/xlink">
    <!-- Generator: sketchtool 3.8.1 (29687) - http://www.bohemiancoding.com/sketch -->
    <title>No blueprint available</title>
    <desc>No blueprint available for this test icon</desc>
    <defs></defs>
    <g id="Page-1" stroke="none" stroke-width="1" fill="none" fill-rule="evenodd">
        <g id="NO-BLUEPRINT-AVAILABLE-FOR-PREDICTOR" transform="translate(-1000.000000, -639.000000)" fill="#DEDFEE">
            <path d="M1012,639 C1005.37188,639 1000,644.371875 1000,651 C1000,657.628125 1005.37188,663 1012,663 C1018.62812,663 1024,657.628125 1024,651 C1024,644.371875 1018.62812,639 1012,639 Z M1013.95417,646.940104 C1013.32604,646.626042 1012.65573,646.466667 1011.9526,646.466667 C1009.48229,646.466667 1007.46667,648.477604 1007.46667,650.947917 C1007.46667,651.651042 1007.62604,652.326042 1007.9401,652.949479 L1008.04792,653.165104 L1014.16979,647.047917 L1013.95417,646.940104 Z M1015.71719,648.6 L1009.6,654.721875 L1009.81562,654.829688 C1010.43906,655.14375 1011.11406,655.303125 1011.81719,655.303125 C1014.2875,655.303125 1016.29839,653.292188 1016.29839,650.821875 C1016.29839,650.11875 1016.13906,649.448438 1015.825,648.820312 L1015.71719,648.6 Z M1012,657.857813 C1008.21719,657.857813 1005.14219,654.782812 1005.14219,651 C1005.14219,647.217187 1008.21719,644.142187 1012,644.142187 C1015.78281,644.142187 1018.85781,647.217187 1018.85781,651 C1018.85781,654.782812 1015.78281,657.857813 1012,657.857813 Z" id="no-blueprint-icon"></path>
        </g>
    </g>
</svg>
