<?xml version="1.0" encoding="UTF-8"?>
<svg width="16px" height="16px" viewBox="0 0 16 16" version="1.1" xmlns="http://www.w3.org/2000/svg" xmlns:xlink="http://www.w3.org/1999/xlink">
    <!-- Generator: sketchtool 59.1 (101010) - https://sketch.com -->
    <title>C053E20E-6EF7-427E-A6B5-DBD6D08BC8FC</title>
    <desc>Created with sketchtool.</desc>
    <defs>
        <path d="M8,1.9 C9.16,1.9 10.1,2.84 10.1,4 C10.1,5.16 9.16,6.1 8,6.1 C6.84,6.1 5.9,5.16 5.9,4 C5.9,2.84 6.84,1.9 8,1.9 M8,10.9 C10.97,10.9 14.1,12.36 14.1,13 L14.1,14.1 L1.9,14.1 L1.9,13 C1.9,12.36 5.03,10.9 8,10.9 M8,0 C5.79,0 4,1.79 4,4 C4,6.21 5.79,8 8,8 C10.21,8 12,6.21 12,4 C12,1.79 10.21,0 8,0 Z M8,9 C5.33,9 0,10.34 0,13 L0,16 L16,16 L16,13 C16,10.34 10.67,9 8,9 Z" id="path-1"></path>
    </defs>
    <g id="Other-Pages" stroke="none" stroke-width="1" fill="none" fill-rule="evenodd">
        <g id="Inactive-Flag---Test-Scheduling" transform="translate(-172.000000, -607.000000)">
            <g id="item" transform="translate(152.000000, 590.000000)">
                <g id="icons/person_outline-24px" transform="translate(16.000000, 13.000000)">
                    <g>
                        <polygon id="Path" points="0 0 24 0 24 24 0 24"></polygon>
                        <g id="colors/grey/40" transform="translate(4.000000, 4.000000)">
                            <mask id="mask-2" fill="white">
                                <use xlink:href="#path-1"></use>
                            </mask>
                            <use id="Mask" fill="#000000" fill-rule="nonzero" xlink:href="#path-1"></use>
                            <g mask="url(#mask-2)" id="colors/black">
                                <g transform="translate(-4.000000, -5.000000)">
                                    <g>
                                        <rect id="Rectangle" fill="#A0A3A8" x="0" y="0" width="24" height="24"></rect>
                                    </g>
                                </g>
                            </g>
                        </g>
                    </g>
                </g>
            </g>
        </g>
    </g>
</svg>