<?xml version="1.0" encoding="UTF-8" standalone="no"?>
<svg width="22px" height="22px" viewBox="0 0 22 22" version="1.1" xmlns="http://www.w3.org/2000/svg" xmlns:xlink="http://www.w3.org/1999/xlink">
    <!-- Generator: sketchtool 3.7.2 (28276) - http://www.bohemiancoding.com/sketch -->
    <title>D36A98B1-B33D-4712-BE59-14163FBC0900</title>
    <desc>Created with sketchtool.</desc>
    <defs></defs>
    <g id="STUDENT-PAY-VIEWS" stroke="none" stroke-width="1" fill="none" fill-rule="evenodd">
        <g id="01-STEP-4-–STUDENT-PAY-INDICATION" transform="translate(-403.000000, -1093.000000)">
            <g id="red-dollar-icon" transform="translate(403.000000, 1093.000000)">
                <g id="Page-1">
                    <path d="M21.5689473,10.7844737 C21.5689473,16.7405784 16.7405784,21.5689473 10.7844737,21.5689473 C4.82836895,21.5689473 0,16.7405784 0,10.7844737 C0,4.82836895 4.82836895,0 10.7844737,0 C16.7405784,0 21.5689473,4.82836895 21.5689473,10.7844737" id="Fill-1" fill="#E26A6A"></path>
                    <path d="M10.1343679,17.8617845 C9.91682485,17.8617845 9.74006059,17.6848518 9.74006059,17.4673087 L9.74006059,16.1544675 L9.58570781,16.1448626 C8.73963215,16.0919513 7.86339366,15.8882258 7.1811072,15.5857551 C7.08522648,15.5424487 7.03012456,15.4801009 7.02203621,15.4560044 C7.01613845,15.4290432 7.02894501,15.3242316 7.04899739,15.2438535 L7.36949847,13.9918435 C7.38399011,13.9300013 7.4180286,13.8587227 7.43892352,13.8442311 C7.47313052,13.830919 7.50700051,13.8235047 7.53766886,13.8235047 C7.57659407,13.8235047 7.6183839,13.8346261 7.67769851,13.8617558 C8.50574388,14.2498284 9.37894923,14.4471505 10.2717014,14.4471505 C11.4177203,14.4471505 12.1583103,13.9508962 12.1583103,13.1825025 C12.1583103,12.3344048 11.3543615,11.8888712 10.1475115,11.4809148 C7.98640407,10.7531313 7.06466858,9.82819417 7.06466858,8.38863544 C7.06466858,6.92514867 8.05448106,5.82260474 9.71225687,5.43908189 L9.83964846,5.40976161 L9.83964846,4.10163865 C9.83964846,3.88392709 10.0165812,3.70699432 10.2341243,3.70699432 L11.3348568,3.70699432 C11.5521892,3.70699432 11.729122,3.88392709 11.729122,4.10163865 L11.729122,5.27327061 L11.8836432,5.28270703 C12.6377139,5.32837253 13.2996109,5.47362591 13.9079226,5.72773507 C13.9955465,5.76413267 14.0113862,5.79193639 14.0134504,5.79716012 C14.0134504,5.80912415 14.0034663,5.8969165 13.9920078,5.95437753 L13.6554986,7.21902557 C13.6384793,7.27614958 13.5985431,7.35147239 13.5763001,7.36630104 C13.5711185,7.36849164 13.5392285,7.38028716 13.4881707,7.38028716 C13.4366074,7.38028716 13.3821796,7.36866015 13.3265721,7.34523762 C12.6281089,7.05287728 11.9144801,6.91048852 11.1445698,6.91048852 C9.57610289,6.91048852 9.45427204,7.81082357 9.45427204,8.08650167 C9.45427204,8.79827694 10.2408646,9.22021947 11.6920503,9.75017525 C13.721722,10.4606024 14.5487563,11.3823379 14.5487563,12.9321005 C14.5477453,14.4641698 13.50519,15.6064815 11.7592848,15.9878137 L11.6295341,16.0157859 L11.6295341,17.4673087 C11.6295341,17.6848518 11.4522643,17.8617845 11.2350583,17.8617845 L10.1343679,17.8617845 Z" id="Fill-3" fill="#FEFEFE"></path>
                </g>
            </g>
        </g>
    </g>
</svg>